<svg width="695" height="431" viewBox="0 0 695 431" fill="none" xmlns="http://www.w3.org/2000/svg">
<g opacity="0.5">
<path d="M695 8.58996C664.11 -7.79443 582.338 -11.9929 502.365 102.288C402.4 245.14 142.635 235.923 54.3438 286.613C-16.2889 327.164 -44.649 399.767 -50 431" stroke="#CFDDEE"/>
<path d="M695 172.199C670.716 162.161 606.432 159.589 543.562 229.606C464.976 317.128 260.764 311.481 191.355 342.537C135.828 367.382 113.533 411.864 109.327 431" stroke="#CFDDEE"/>
<path d="M695 300.112C677.078 295.036 629.634 293.735 583.234 329.146C525.234 373.409 374.519 370.554 323.293 386.26C282.312 398.825 265.857 421.322 262.752 431" stroke="#CFDDEE"/>
<path d="M695 97.8315C667.536 84.9086 594.831 81.5971 523.727 171.734C434.846 284.406 203.887 277.137 125.387 317.117C62.5866 349.101 37.3714 406.366 32.6138 431" stroke="#CFDDEE"/>
<path d="M695 225.744C673.408 217.783 616.248 215.743 560.346 271.274C490.469 340.688 308.891 336.209 247.175 360.84C197.802 380.544 177.978 415.823 174.238 431" stroke="#CFDDEE"/>
<path d="M695 365.556C681.543 363.018 645.919 362.367 611.08 380.073C567.531 402.205 454.366 400.777 415.902 408.63C385.132 414.913 372.777 426.161 370.446 431" stroke="#CFDDEE"/>
</g>
</svg>
